# xmcd
#
# Track frame offsets: 
#        150
#        22344
#        46072
#        67442
#        90845
#        107168
#        127435
#        152654
#        176949
#        198060
#        221607
#        242485
#        260587
#        283482
#        306677
#        325720
#
# Disc length: 4665 seconds
#
# Revision: 1
# Processed by: cddbd v1.5.2PL0 Copyright (c) Steve Scherf et al.
# Submitted via: ExactAudioCopy v0.99pb4
#
DISCID=fc123710
DTITLE=Zoot Sims - Four Classic Albums 2
DYEAR=1956
DGENRE=Jazz
TTITLE0=9.20 Special
TTITLE1=The Man I Love
TTITLE2=55th And State
TTITLE3=Blue Room
TTITLE4=Gus's Blues
TTITLE5=That Old Feeeling
TTITLE6=Bohemia After Dark
TTITLE7=Woudy'n You
TTITLE8=The King
TTITLE9=Lullaby Of TThe Leaves
TTITLE10=I Can't Get Started
TTITLE11=Snake Eyes
TTITLE12=Morning Fun
TTITLE13=Whooeeeee
TTITLE14=Someone to Watch Over Me - My Old Flame
TTITLE15=Box Cars
EXTD=YEAR: 1956
EXTT0=
EXTT1=
EXTT2=
EXTT3=
EXTT4=
EXTT5=
EXTT6=
EXTT7=
EXTT8=
EXTT9=
EXTT10=
EXTT11=
EXTT12=
EXTT13=
EXTT14=
EXTT15=
PLAYORDER=
